<svg width="477" height="421" viewBox="0 0 477 421" fill="none" xmlns="http://www.w3.org/2000/svg">
<path d="M201.147 366.068L199.128 320.998H175.908L174.394 356.699" fill="#5C6479"/>
<path d="M201.147 366.068L199.128 320.998H175.908L174.394 356.699" stroke="#8E96AB" stroke-width="2" stroke-miterlimit="10" stroke-linecap="round" stroke-linejoin="round"/>
<path d="M312.196 390.122L308.915 320.745H285.947L283.928 362.776L312.196 390.122Z" fill="#5C6479"/>
<path d="M312.196 390.122L308.915 320.745H285.947L283.928 362.776" stroke="#8E96AB" stroke-width="2" stroke-miterlimit="10" stroke-linecap="round" stroke-linejoin="round"/>
<path d="M265.512 357.965L263.493 316.44H224.877L222.605 365.055V365.815" fill="#5C6479"/>
<path d="M265.512 357.965L263.493 316.44H224.877L222.605 365.055V365.815" stroke="#8E96AB" stroke-width="2" stroke-miterlimit="10" stroke-linecap="round" stroke-linejoin="round"/>
<path d="M197.86 368.347C201.646 365.055 206.694 363.283 211.994 363.283C220.828 363.283 228.4 368.347 231.933 375.69" stroke="#8E96AB" stroke-width="2" stroke-miterlimit="10" stroke-linecap="round" stroke-linejoin="round"/>
<path d="M67.6273 417.721C67.6273 378.475 99.1765 346.824 138.297 346.824C170.856 346.824 198.367 368.853 206.444 398.984" stroke="#8E96AB" stroke-width="2" stroke-miterlimit="10" stroke-linecap="round" stroke-linejoin="round"/>
<path d="M207.207 398.731C207.964 385.818 218.565 375.69 231.689 375.69C236.485 375.69 241.028 377.209 244.814 379.488" stroke="#8E96AB" stroke-width="2" stroke-miterlimit="10" stroke-linecap="round" stroke-linejoin="round"/>
<path d="M255.418 362.017C259.457 359.231 264 357.712 269.3 357.712C277.377 357.712 284.444 361.763 288.987 367.587" stroke="#8E96AB" stroke-width="2" stroke-miterlimit="10" stroke-linecap="round" stroke-linejoin="round"/>
<path d="M404.581 420C404.076 413.67 402.309 407.593 399.533 402.276" stroke="#8E96AB" stroke-width="2" stroke-miterlimit="10" stroke-linecap="round" stroke-linejoin="round"/>
<path d="M309.423 394.933C319.014 381.26 334.663 372.398 352.33 372.398C369.24 372.398 384.384 380.501 393.975 392.907" stroke="#8E96AB" stroke-width="2" stroke-miterlimit="10" stroke-linecap="round" stroke-linejoin="round"/>
<path d="M244.3 419.241C241.776 406.58 230.671 396.959 217.294 396.959C213.508 396.959 209.975 397.718 206.693 399.238C200.384 401.77 195.336 406.834 192.559 412.91" stroke="#8E96AB" stroke-width="2" stroke-miterlimit="10" stroke-linecap="round" stroke-linejoin="round"/>
<path d="M96.1523 361.004C95.8999 361.004 95.8999 361.004 96.1523 361.004C76.2132 351.635 52.4882 352.395 33.0539 364.295C32.8015 364.549 32.2968 364.802 32.0444 364.802C31.5396 365.055 31.2872 365.308 30.7824 365.561C28.5109 367.081 26.4917 368.6 24.4726 370.372C19.9295 374.424 15.8912 378.728 12.6101 383.539C12.3577 384.045 12.1053 384.298 11.6005 384.805C11.3481 385.311 11.0957 385.818 10.8433 386.071C10.5909 386.324 10.3386 386.83 10.3386 387.084C4.53351 396.959 1.50479 408.1 1 419.494" stroke="#8E96AB" stroke-width="2" stroke-miterlimit="10" stroke-linecap="round" stroke-linejoin="round"/>
<path d="M349.046 372.398C349.299 371.891 349.551 371.385 349.803 370.878C355.861 358.218 365.957 347.837 378.324 341.254C380.595 339.988 383.119 338.975 385.643 337.962C392.963 335.177 401.039 333.658 409.368 333.658C410.63 333.658 411.64 333.658 412.902 333.658C413.406 333.658 413.911 333.658 414.668 333.658C415.173 333.658 415.678 333.658 416.183 333.911C432.841 335.683 447.732 343.533 458.332 355.18C458.585 355.433 458.585 355.433 458.837 355.686C469.438 367.587 476 383.285 476 400.503C476 402.276 476 403.795 475.748 405.567C475.748 406.074 475.748 406.58 475.495 407.086C475.495 407.593 475.243 408.352 475.243 408.859C474.738 412.404 473.981 415.948 472.971 419.493" stroke="#8E96AB" stroke-width="2" stroke-miterlimit="10" stroke-linecap="round" stroke-linejoin="round"/>
<path d="M142.342 214.98H141.332C140.07 214.98 138.809 213.968 138.809 212.448V211.436C138.809 210.423 137.799 209.41 136.789 209.41C135.78 209.41 134.77 210.423 134.77 211.436V212.448C134.77 213.714 133.761 214.98 132.246 214.98H131.489C130.48 214.98 129.47 215.993 129.47 217.006C129.47 218.019 130.48 219.032 131.489 219.032H132.499C133.761 219.032 135.023 220.044 135.023 221.564V222.576C135.023 223.589 136.032 224.602 137.042 224.602C138.051 224.602 139.061 223.589 139.061 222.576V221.564C139.061 220.298 140.07 219.032 141.585 219.032H142.594C143.604 219.032 144.614 218.019 144.614 217.006C144.361 215.993 143.604 214.98 142.342 214.98Z" fill="#474E61"/>
<path d="M130.219 140.285H129.209C127.443 140.285 126.181 139.019 126.181 137.247V136.234C126.181 134.968 125.171 133.702 123.657 133.702C122.142 133.702 121.133 134.715 121.133 136.234V137.247C121.133 139.019 119.871 140.285 118.104 140.285H116.842C115.58 140.285 114.318 141.298 114.318 142.817C114.318 144.083 115.328 145.349 116.842 145.349H117.852C119.618 145.349 120.88 146.615 120.88 148.388V149.401C120.88 150.667 121.89 151.933 123.404 151.933C124.919 151.933 125.928 150.92 125.928 149.401V148.388C125.928 146.615 127.19 145.349 128.957 145.349H129.967C131.228 145.349 132.49 144.337 132.49 142.817C132.743 141.551 131.733 140.285 130.219 140.285Z" fill="#474E61"/>
<path d="M366.712 131.93H365.955C364.946 131.93 363.936 130.917 363.936 129.904V129.145C363.936 128.132 363.179 127.625 362.422 127.625C361.412 127.625 360.655 128.385 360.655 129.145V129.904C360.655 130.917 359.645 131.93 358.636 131.93H357.879C356.869 131.93 356.364 132.69 356.364 133.449C356.364 134.462 357.121 134.968 357.879 134.968H358.636C359.645 134.968 360.655 135.981 360.655 136.994V137.754C360.655 138.766 361.412 139.273 362.422 139.273C363.431 139.273 363.936 138.513 363.936 137.754V136.994C363.936 135.981 364.946 134.968 365.955 134.968H366.712C367.722 134.968 368.227 134.209 368.227 133.449C368.479 132.943 367.469 131.93 366.712 131.93Z" fill="#474E61"/>
<path d="M364.441 325.123H363.684C362.674 325.123 361.665 324.11 361.665 323.097V322.338C361.665 321.325 360.907 320.818 360.15 320.818C359.141 320.818 358.384 321.578 358.384 322.338V323.097C358.384 324.11 357.374 325.123 356.364 325.123H355.607C354.598 325.123 354.093 325.882 354.093 326.642C354.093 327.402 354.85 328.161 355.607 328.161H356.364C357.374 328.161 358.384 329.174 358.384 330.187V330.946C358.384 331.959 359.141 332.466 360.15 332.466C361.16 332.466 361.665 331.706 361.665 330.946V330.187C361.665 329.174 362.674 328.161 363.684 328.161H364.441C365.451 328.161 365.955 327.402 365.955 326.642C365.955 325.882 365.198 325.123 364.441 325.123Z" fill="#474E61"/>
<path d="M130.983 323.605H130.226C129.217 323.605 128.207 322.592 128.207 321.579V320.819C128.207 319.807 127.45 319.3 126.693 319.3C125.683 319.3 124.926 320.06 124.926 320.819V321.579C124.926 322.592 123.916 323.605 122.907 323.605H122.15C121.14 323.605 120.635 324.364 120.635 325.124C120.635 326.137 121.392 326.643 122.15 326.643H122.907C123.916 326.643 124.926 327.656 124.926 328.669V329.428C124.926 330.441 125.683 330.947 126.693 330.947C127.702 330.947 128.207 330.188 128.207 329.428V328.669C128.207 327.656 129.217 326.643 130.226 326.643H130.983C131.993 326.643 132.498 325.883 132.498 325.124C132.75 324.364 131.741 323.605 130.983 323.605Z" fill="#474E61"/>
<path d="M90.3489 244.858C87.3202 244.858 84.7963 242.326 84.7963 239.288C84.7963 236.249 87.3202 233.717 90.3489 233.717C93.3776 233.717 95.9016 236.249 95.9016 239.288C95.9016 242.326 93.3776 244.858 90.3489 244.858ZM90.3489 236.756C89.087 236.756 87.825 237.769 87.825 239.288C87.825 240.554 88.8346 241.82 90.3489 241.82C91.6109 241.82 92.8729 240.807 92.8729 239.288C93.1252 238.022 91.8633 236.756 90.3489 236.756Z" fill="#474E61"/>
<path d="M349.049 207.131C344.253 207.131 340.72 203.333 340.72 198.775C340.72 194.218 344.506 190.419 349.049 190.419C353.844 190.419 357.378 194.218 357.378 198.775C357.378 203.333 353.592 207.131 349.049 207.131ZM349.049 194.977C347.03 194.977 345.01 196.75 345.01 199.028C345.01 201.307 346.777 203.08 349.049 203.08C351.068 203.08 353.087 201.307 353.087 199.028C353.087 196.75 351.32 194.977 349.049 194.977Z" fill="#474E61"/>
<path d="M399.527 179.785C397.508 179.785 395.741 181.305 395.741 183.583C395.741 185.862 397.255 187.381 399.527 187.381C401.546 187.381 403.313 185.862 403.313 183.583C403.313 181.305 401.546 179.785 399.527 179.785Z" fill="#474E61"/>
<path d="M399.783 266.887H398.774C397.259 266.887 396.25 265.621 396.25 264.355V263.342C396.25 262.076 395.24 261.063 393.978 261.063C392.716 261.063 391.707 262.076 391.707 263.342V264.355C391.707 265.874 390.445 266.887 389.183 266.887H388.173C386.911 266.887 385.901 267.9 385.901 269.166C385.901 270.432 386.911 271.444 388.173 271.444H389.183C390.697 271.444 391.707 272.71 391.707 273.976V274.989C391.707 276.255 392.716 277.268 393.978 277.268C395.24 277.268 396.25 276.255 396.25 274.989V273.976C396.25 272.457 397.512 271.444 398.774 271.444H399.783C401.045 271.444 402.055 270.432 402.055 269.166C401.802 267.9 401.045 266.887 399.783 266.887Z" fill="#474E61"/>
<path d="M259.436 301.754H227.887L221.325 306.059C220.063 307.072 219.306 308.338 219.306 310.11V314.415H269.027V310.363C269.027 308.591 268.27 307.072 266.756 306.312L259.436 301.754Z" fill="url(#paint0_linear_818_101945)"/>
<path d="M271.055 316.441C271.055 317.453 270.298 318.466 269.036 318.466H218.557C217.548 318.466 216.538 317.707 216.538 316.441C216.538 315.428 217.295 314.415 218.557 314.415H269.036C270.045 314.415 271.055 315.428 271.055 316.441Z" fill="#8E96AB"/>
<path d="M202.652 320.998H171.86C171.103 320.998 170.598 320.492 170.598 319.732C170.598 318.973 171.103 318.466 171.86 318.466H202.652C203.409 318.466 203.914 318.973 203.914 319.732C203.661 320.492 203.157 320.998 202.652 320.998Z" fill="#8E96AB"/>
<path d="M200.88 313.655C201.637 314.162 202.394 315.175 202.394 316.187V318.719H172.107V316.187C172.107 315.175 172.612 314.162 173.369 313.655L177.407 310.87V299.982H196.589V311.123L200.88 313.655Z" fill="#8E96AB"/>
<path d="M189.273 55.6411C188.011 54.6283 186.244 54.6283 185.235 55.6411C179.682 60.452 170.848 77.4166 170.848 95.394V307.325C170.848 309.35 172.363 310.87 174.382 310.87H187.254H200.126C202.145 310.87 203.659 309.35 203.659 307.325V95.6472C203.659 77.4166 194.825 60.7052 189.273 55.6411Z" fill="#474E61"/>
<path d="M247.321 0.949511C244.545 -0.316504 240.507 -0.316504 237.731 0.949511C224.606 7.53278 203.657 38.6767 203.657 63.2374C203.657 91.0897 203.657 297.956 203.657 297.956H242.526H281.395C281.395 297.956 281.395 91.0897 281.395 63.2374C281.142 38.6767 260.446 7.78599 247.321 0.949511Z" fill="#474E61"/>
<path d="M220.826 91.3422H281.401" stroke="#5C6479" stroke-width="2" stroke-miterlimit="10" stroke-linejoin="round"/>
<path d="M203.657 91.3422H210.978" stroke="#5C6479" stroke-width="2" stroke-miterlimit="10" stroke-linejoin="round"/>
<path d="M188.013 98.4327H203.661" stroke="#5C6479" stroke-width="2" stroke-miterlimit="10" stroke-linejoin="round"/>
<path d="M170.598 98.4327H177.413" stroke="#5C6479" stroke-width="2" stroke-miterlimit="10" stroke-linejoin="round"/>
<path d="M183.217 142.237H203.66" stroke="#5C6479" stroke-width="2" stroke-miterlimit="10" stroke-linejoin="round"/>
<path d="M313.202 320.998H282.41C281.653 320.998 281.148 320.492 281.148 319.732C281.148 318.973 281.653 318.466 282.41 318.466H313.202C313.959 318.466 314.464 318.973 314.464 319.732C314.212 320.492 313.707 320.998 313.202 320.998Z" fill="#8E96AB"/>
<path d="M311.688 313.655C312.445 314.162 313.202 315.175 313.202 316.187V318.719H282.915V316.187C282.915 315.175 283.42 314.162 284.177 313.655L288.216 310.87V299.982H307.397V311.123L311.688 313.655Z" fill="#8E96AB"/>
<path d="M299.819 55.6411C298.557 54.6283 296.791 54.6283 295.781 55.6411C290.228 60.452 281.395 77.4166 281.395 95.394V307.325C281.395 309.35 282.909 310.87 284.928 310.87H297.8H310.672C312.691 310.87 314.206 309.35 314.206 307.325V95.6472C314.206 77.4166 305.372 60.7052 299.819 55.6411Z" fill="#474E61"/>
<path d="M294.521 98.4327H314.461" stroke="#5C6479" stroke-width="2" stroke-miterlimit="10" stroke-linejoin="round"/>
<path d="M296.042 142.237H314.214" stroke="#5C6479" stroke-width="2" stroke-miterlimit="10" stroke-linejoin="round"/>
<path d="M281.148 142.237H288.216" stroke="#5C6479" stroke-width="2" stroke-miterlimit="10" stroke-linejoin="round"/>
<g filter="url(#filter0_d_818_101945)">
<path d="M220.067 126.791L221.581 120.714L225.62 119.701L232.434 118.182L233.191 117.929L233.696 126.791L243.54 272.383L222.339 301.754L214.01 300.235L155.454 290.107C151.921 289.6 149.145 286.309 149.145 282.764V255.165C149.145 251.873 150.407 248.582 152.678 246.303L192.051 206.297C198.361 199.713 203.157 191.611 205.428 183.002L213.757 151.098L220.067 126.791Z" fill="#8E96AB"/>
</g>
<g filter="url(#filter1_d_818_101945)">
<path d="M338.694 255.165V282.764C338.694 286.309 336.17 289.6 332.384 290.107L288.468 297.703L265.5 301.754L244.047 272.383L254.647 117.929L255.404 118.182L262.219 119.701L266.257 120.714L280.896 176.166L282.663 183.002C284.934 191.864 289.477 199.967 296.04 206.297L335.413 246.303C337.432 248.582 338.694 251.873 338.694 255.165Z" fill="#8E96AB"/>
</g>
<g filter="url(#filter2_d_818_101945)">
<path d="M266.257 112.612V298.21H220.826V112.612C220.826 104.51 222.593 96.6603 225.874 89.3174C226.631 88.0514 227.136 86.5321 227.893 85.2661L237.484 69.3144C240.261 64.7567 246.571 64.7567 249.347 69.3144L258.938 85.2661C259.695 86.5321 260.452 88.0514 260.957 89.3174C264.49 96.6603 266.257 104.763 266.257 112.612Z" fill="#8E96AB"/>
</g>
<path d="M261.204 89.3174C259.69 86.7853 256.914 85.2661 253.632 85.2661H233.441C230.412 85.2661 227.636 86.7853 225.869 89.3174C226.626 88.0514 227.131 86.5321 227.888 85.2661L237.479 69.3144C240.256 64.7567 246.565 64.7567 249.342 69.3144L258.933 85.2661C259.69 86.5321 260.699 88.0514 261.204 89.3174Z" fill="#2A2E37"/>
<path d="M255.147 110.839C255.147 111.599 254.137 112.105 253.633 111.346C252.371 109.827 250.604 109.067 248.332 109.067H238.489C236.47 109.067 234.703 109.827 233.441 111.346C233.441 111.346 233.441 111.346 233.189 111.599C232.684 112.359 231.674 111.852 231.674 111.093C231.674 110.333 231.674 109.573 231.674 108.561C231.674 104.763 234.703 101.977 238.489 101.977H248.332C248.585 101.977 248.837 101.977 249.089 101.977C250.099 101.977 250.856 102.484 251.866 102.737C253.885 104.003 255.147 106.029 255.147 108.561C255.147 109.32 255.147 110.08 255.147 110.839Z" fill="#C2C8D6"/>
<path d="M231.673 258.71H226.12C219.305 258.71 214.005 264.281 214.005 270.864V301.755H244.04V270.864C243.787 264.281 238.235 258.71 231.673 258.71Z" fill="#C6CDDF"/>
<path d="M261.456 258.71H255.904C249.089 258.71 243.789 264.281 243.789 270.864V301.755H273.823V270.864C273.571 264.281 268.018 258.71 261.456 258.71Z" fill="#C6CDDF"/>
<path d="M259.436 301.754H227.887L221.325 306.059C220.063 307.072 219.306 308.338 219.306 310.11V314.415H269.027V310.363C269.027 308.591 268.27 307.072 266.756 306.312L259.436 301.754Z" fill="#8E96AB"/>
<path d="M271.055 316.441C271.055 317.453 270.298 318.466 269.036 318.466H218.557C217.548 318.466 216.538 317.707 216.538 316.441C216.538 315.428 217.295 314.415 218.557 314.415H269.036C270.045 314.415 271.055 315.428 271.055 316.441Z" fill="#8E96AB"/>
<g filter="url(#filter3_d_818_101945)">
<rect x="243.703" y="236.597" width="6.32852" height="66.2472" rx="2" fill="#C2C8D6"/>
</g>
<defs>
<filter id="filter0_d_818_101945" x="127.145" y="106.929" width="138.395" height="227.825" filterUnits="userSpaceOnUse" color-interpolation-filters="sRGB">
<feFlood flood-opacity="0" result="BackgroundImageFix"/>
<feColorMatrix in="SourceAlpha" type="matrix" values="0 0 0 0 0 0 0 0 0 0 0 0 0 0 0 0 0 0 127 0" result="hardAlpha"/>
<feOffset dy="11"/>
<feGaussianBlur stdDeviation="11"/>
<feColorMatrix type="matrix" values="0 0 0 0 0 0 0 0 0 0 0 0 0 0 0 0 0 0 0.27 0"/>
<feBlend mode="normal" in2="BackgroundImageFix" result="effect1_dropShadow_818_101945"/>
<feBlend mode="normal" in="SourceGraphic" in2="effect1_dropShadow_818_101945" result="shape"/>
</filter>
<filter id="filter1_d_818_101945" x="222.047" y="106.929" width="138.647" height="227.825" filterUnits="userSpaceOnUse" color-interpolation-filters="sRGB">
<feFlood flood-opacity="0" result="BackgroundImageFix"/>
<feColorMatrix in="SourceAlpha" type="matrix" values="0 0 0 0 0 0 0 0 0 0 0 0 0 0 0 0 0 0 127 0" result="hardAlpha"/>
<feOffset dy="11"/>
<feGaussianBlur stdDeviation="11"/>
<feColorMatrix type="matrix" values="0 0 0 0 0 0 0 0 0 0 0 0 0 0 0 0 0 0 0.27 0"/>
<feBlend mode="normal" in2="BackgroundImageFix" result="effect1_dropShadow_818_101945"/>
<feBlend mode="normal" in="SourceGraphic" in2="effect1_dropShadow_818_101945" result="shape"/>
</filter>
<filter id="filter2_d_818_101945" x="198.826" y="54.8961" width="89.4308" height="276.314" filterUnits="userSpaceOnUse" color-interpolation-filters="sRGB">
<feFlood flood-opacity="0" result="BackgroundImageFix"/>
<feColorMatrix in="SourceAlpha" type="matrix" values="0 0 0 0 0 0 0 0 0 0 0 0 0 0 0 0 0 0 127 0" result="hardAlpha"/>
<feOffset dy="11"/>
<feGaussianBlur stdDeviation="11"/>
<feColorMatrix type="matrix" values="0 0 0 0 0 0 0 0 0 0 0 0 0 0 0 0 0 0 0.27 0"/>
<feBlend mode="normal" in2="BackgroundImageFix" result="effect1_dropShadow_818_101945"/>
<feBlend mode="normal" in="SourceGraphic" in2="effect1_dropShadow_818_101945" result="shape"/>
</filter>
<filter id="filter3_d_818_101945" x="221.703" y="225.597" width="50.3285" height="110.247" filterUnits="userSpaceOnUse" color-interpolation-filters="sRGB">
<feFlood flood-opacity="0" result="BackgroundImageFix"/>
<feColorMatrix in="SourceAlpha" type="matrix" values="0 0 0 0 0 0 0 0 0 0 0 0 0 0 0 0 0 0 127 0" result="hardAlpha"/>
<feOffset dy="11"/>
<feGaussianBlur stdDeviation="11"/>
<feColorMatrix type="matrix" values="0 0 0 0 0 0 0 0 0 0 0 0 0 0 0 0 0 0 0.27 0"/>
<feBlend mode="normal" in2="BackgroundImageFix" result="effect1_dropShadow_818_101945"/>
<feBlend mode="normal" in="SourceGraphic" in2="effect1_dropShadow_818_101945" result="shape"/>
</filter>
<linearGradient id="paint0_linear_818_101945" x1="267.055" y1="301.754" x2="220.83" y2="302.387" gradientUnits="userSpaceOnUse">
<stop stop-color="#B0BACC"/>
<stop offset="1" stop-color="#969EAE"/>
</linearGradient>
</defs>
</svg>
