<svg width="477" height="421" viewBox="0 0 477 421" fill="none" xmlns="http://www.w3.org/2000/svg">
<path d="M201.147 366.068L199.128 320.998H175.908L174.394 356.699" fill="white"/>
<path d="M201.147 366.068L199.128 320.998H175.908L174.394 356.699" stroke="#D5DDEA" stroke-width="2" stroke-miterlimit="10" stroke-linecap="round" stroke-linejoin="round"/>
<path d="M312.196 390.122L308.915 320.745H285.947L283.928 362.776L312.196 390.122Z" fill="white"/>
<path d="M312.196 390.122L308.915 320.745H285.947L283.928 362.776" stroke="#D5DDEA" stroke-width="2" stroke-miterlimit="10" stroke-linecap="round" stroke-linejoin="round"/>
<path d="M265.512 357.965L263.493 316.44H224.877L222.605 365.055V365.815" fill="white"/>
<path d="M265.512 357.965L263.493 316.44H224.877L222.605 365.055V365.815" stroke="#D5DDEA" stroke-width="2" stroke-miterlimit="10" stroke-linecap="round" stroke-linejoin="round"/>
<path d="M197.86 368.346C201.646 365.055 206.694 363.282 211.994 363.282C220.828 363.282 228.4 368.346 231.933 375.689" stroke="#D5DDEA" stroke-width="2" stroke-miterlimit="10" stroke-linecap="round" stroke-linejoin="round"/>
<path d="M67.6273 417.721C67.6273 378.474 99.1765 346.824 138.297 346.824C170.856 346.824 198.367 368.853 206.444 398.984" stroke="#D5DDEA" stroke-width="2" stroke-miterlimit="10" stroke-linecap="round" stroke-linejoin="round"/>
<path d="M207.207 398.731C207.964 385.818 218.565 375.689 231.689 375.689C236.485 375.689 241.028 377.209 244.814 379.487" stroke="#D5DDEA" stroke-width="2" stroke-miterlimit="10" stroke-linecap="round" stroke-linejoin="round"/>
<path d="M255.418 362.017C259.457 359.231 264 357.712 269.3 357.712C277.377 357.712 284.444 361.763 288.987 367.587" stroke="#D5DDEA" stroke-width="2" stroke-miterlimit="10" stroke-linecap="round" stroke-linejoin="round"/>
<path d="M404.581 420C404.076 413.67 402.309 407.593 399.533 402.276" stroke="#C2C8D6" stroke-width="2" stroke-miterlimit="10" stroke-linecap="round" stroke-linejoin="round"/>
<path d="M309.423 394.933C319.014 381.26 334.662 372.398 352.33 372.398C369.24 372.398 384.384 380.5 393.975 392.907" stroke="#D5DDEA" stroke-width="2" stroke-miterlimit="10" stroke-linecap="round" stroke-linejoin="round"/>
<path d="M244.3 419.24C241.776 406.58 230.671 396.958 217.294 396.958C213.508 396.958 209.975 397.718 206.693 399.237C200.384 401.769 195.336 406.833 192.559 412.91" stroke="#D5DDEA" stroke-width="2" stroke-miterlimit="10" stroke-linecap="round" stroke-linejoin="round"/>
<path d="M96.1523 361.004C95.8999 361.004 95.8999 361.004 96.1523 361.004C76.2132 351.635 52.4882 352.395 33.0539 364.295C32.8015 364.548 32.2968 364.802 32.0444 364.802C31.5396 365.055 31.2872 365.308 30.7824 365.561C28.5109 367.08 26.4917 368.6 24.4726 370.372C19.9295 374.423 15.8912 378.728 12.6101 383.539C12.3577 384.045 12.1053 384.298 11.6005 384.805C11.3481 385.311 11.0957 385.817 10.8433 386.071C10.5909 386.324 10.3386 386.83 10.3386 387.083C4.53351 396.958 1.50479 408.099 1 419.493" stroke="#D5DDEA" stroke-width="2" stroke-miterlimit="10" stroke-linecap="round" stroke-linejoin="round"/>
<path d="M349.046 372.398C349.299 371.891 349.551 371.385 349.803 370.878C355.861 358.218 365.957 347.837 378.324 341.254C380.595 339.988 383.119 338.975 385.643 337.962C392.963 335.177 401.039 333.658 409.368 333.658C410.63 333.658 411.64 333.658 412.902 333.658C413.406 333.658 413.911 333.658 414.668 333.658C415.173 333.658 415.678 333.658 416.183 333.911C432.841 335.683 447.732 343.533 458.332 355.18C458.585 355.433 458.585 355.433 458.837 355.686C469.438 367.587 476 383.285 476 400.503C476 402.276 476 403.795 475.748 405.567C475.748 406.074 475.748 406.58 475.495 407.086C475.495 407.593 475.243 408.352 475.243 408.859C474.738 412.404 473.981 415.949 472.971 419.493" stroke="#D5DDEA" stroke-width="2" stroke-miterlimit="10" stroke-linecap="round" stroke-linejoin="round"/>
<path d="M142.342 214.98H141.332C140.07 214.98 138.809 213.967 138.809 212.448V211.435C138.809 210.422 137.799 209.41 136.789 209.41C135.78 209.41 134.77 210.422 134.77 211.435V212.448C134.77 213.714 133.761 214.98 132.246 214.98H131.489C130.48 214.98 129.47 215.993 129.47 217.006C129.47 218.019 130.48 219.031 131.489 219.031H132.499C133.761 219.031 135.023 220.044 135.023 221.563V222.576C135.023 223.589 136.032 224.602 137.042 224.602C138.051 224.602 139.061 223.589 139.061 222.576V221.563C139.061 220.297 140.07 219.031 141.585 219.031H142.594C143.604 219.031 144.614 218.019 144.614 217.006C144.361 215.993 143.604 214.98 142.342 214.98Z" fill="#C2C8D6"/>
<path d="M130.219 140.286H129.209C127.443 140.286 126.181 139.02 126.181 137.247V136.234C126.181 134.968 125.171 133.702 123.657 133.702C122.142 133.702 121.133 134.715 121.133 136.234V137.247C121.133 139.02 119.871 140.286 118.104 140.286H116.842C115.58 140.286 114.318 141.298 114.318 142.818C114.318 144.084 115.328 145.35 116.842 145.35H117.852C119.618 145.35 120.88 146.616 120.88 148.388V149.401C120.88 150.667 121.89 151.933 123.404 151.933C124.919 151.933 125.928 150.92 125.928 149.401V148.388C125.928 146.616 127.19 145.35 128.957 145.35H129.967C131.228 145.35 132.49 144.337 132.49 142.818C132.743 141.552 131.733 140.286 130.219 140.286Z" fill="#C2C8D6"/>
<path d="M366.712 131.93H365.955C364.946 131.93 363.936 130.917 363.936 129.904V129.144C363.936 128.132 363.179 127.625 362.422 127.625C361.412 127.625 360.655 128.385 360.655 129.144V129.904C360.655 130.917 359.645 131.93 358.636 131.93H357.879C356.869 131.93 356.364 132.689 356.364 133.449C356.364 134.462 357.121 134.968 357.879 134.968H358.636C359.645 134.968 360.655 135.981 360.655 136.994V137.753C360.655 138.766 361.412 139.273 362.422 139.273C363.431 139.273 363.936 138.513 363.936 137.753V136.994C363.936 135.981 364.946 134.968 365.955 134.968H366.712C367.722 134.968 368.227 134.209 368.227 133.449C368.479 132.942 367.469 131.93 366.712 131.93Z" fill="#C2C8D6"/>
<path d="M364.441 325.123H363.684C362.674 325.123 361.665 324.11 361.665 323.098V322.338C361.665 321.325 360.907 320.819 360.15 320.819C359.141 320.819 358.384 321.578 358.384 322.338V323.098C358.384 324.11 357.374 325.123 356.364 325.123H355.607C354.598 325.123 354.093 325.883 354.093 326.642C354.093 327.402 354.85 328.162 355.607 328.162H356.364C357.374 328.162 358.384 329.174 358.384 330.187V330.947C358.384 331.96 359.141 332.466 360.15 332.466C361.16 332.466 361.665 331.706 361.665 330.947V330.187C361.665 329.174 362.674 328.162 363.684 328.162H364.441C365.451 328.162 365.955 327.402 365.955 326.642C365.955 325.883 365.198 325.123 364.441 325.123Z" fill="#C2C8D6"/>
<path d="M130.983 323.604H130.226C129.217 323.604 128.207 322.592 128.207 321.579V320.819C128.207 319.806 127.45 319.3 126.693 319.3C125.683 319.3 124.926 320.06 124.926 320.819V321.579C124.926 322.592 123.916 323.604 122.907 323.604H122.15C121.14 323.604 120.635 324.364 120.635 325.124C120.635 326.136 121.392 326.643 122.15 326.643H122.907C123.916 326.643 124.926 327.656 124.926 328.668V329.428C124.926 330.441 125.683 330.947 126.693 330.947C127.702 330.947 128.207 330.188 128.207 329.428V328.668C128.207 327.656 129.217 326.643 130.226 326.643H130.983C131.993 326.643 132.498 325.883 132.498 325.124C132.75 324.364 131.741 323.604 130.983 323.604Z" fill="#C2C8D6"/>
<path d="M90.3489 244.859C87.3202 244.859 84.7963 242.327 84.7963 239.288C84.7963 236.25 87.3202 233.718 90.3489 233.718C93.3776 233.718 95.9016 236.25 95.9016 239.288C95.9016 242.327 93.3776 244.859 90.3489 244.859ZM90.3489 236.756C89.087 236.756 87.825 237.769 87.825 239.288C87.825 240.554 88.8346 241.82 90.3489 241.82C91.6109 241.82 92.8729 240.807 92.8729 239.288C93.1252 238.022 91.8633 236.756 90.3489 236.756Z" fill="#C2C8D6"/>
<path d="M349.049 207.131C344.253 207.131 340.72 203.333 340.72 198.775C340.72 194.218 344.506 190.42 349.049 190.42C353.844 190.42 357.378 194.218 357.378 198.775C357.378 203.333 353.592 207.131 349.049 207.131ZM349.049 194.977C347.03 194.977 345.01 196.75 345.01 199.029C345.01 201.307 346.777 203.08 349.049 203.08C351.068 203.08 353.087 201.307 353.087 199.029C353.087 196.75 351.32 194.977 349.049 194.977Z" fill="#C2C8D6"/>
<path d="M399.527 179.785C397.508 179.785 395.741 181.304 395.741 183.583C395.741 185.862 397.255 187.381 399.527 187.381C401.546 187.381 403.313 185.862 403.313 183.583C403.313 181.304 401.546 179.785 399.527 179.785Z" fill="#C2C8D6"/>
<path d="M399.783 266.887H398.774C397.259 266.887 396.25 265.621 396.25 264.355V263.342C396.25 262.076 395.24 261.063 393.978 261.063C392.716 261.063 391.707 262.076 391.707 263.342V264.355C391.707 265.874 390.445 266.887 389.183 266.887H388.173C386.911 266.887 385.902 267.9 385.902 269.166C385.902 270.432 386.911 271.445 388.173 271.445H389.183C390.697 271.445 391.707 272.711 391.707 273.977V274.989C391.707 276.255 392.716 277.268 393.978 277.268C395.24 277.268 396.25 276.255 396.25 274.989V273.977C396.25 272.457 397.512 271.445 398.774 271.445H399.783C401.045 271.445 402.055 270.432 402.055 269.166C401.802 267.9 401.045 266.887 399.783 266.887Z" fill="#C2C8D6"/>
<path d="M259.436 301.754H227.887L221.325 306.059C220.063 307.072 219.306 308.338 219.306 310.11V314.415H269.027V310.363C269.027 308.591 268.27 307.072 266.756 306.312L259.436 301.754Z" fill="url(#paint0_linear_812_101763)"/>
<path d="M271.055 316.44C271.055 317.453 270.298 318.466 269.036 318.466H218.557C217.548 318.466 216.538 317.706 216.538 316.44C216.538 315.427 217.295 314.414 218.557 314.414H269.036C270.045 314.414 271.055 315.427 271.055 316.44Z" fill="white" stroke="#C2C8D6" stroke-width="2" stroke-miterlimit="10" stroke-linecap="round" stroke-linejoin="round"/>
<path d="M202.652 320.998H171.86C171.103 320.998 170.598 320.491 170.598 319.732C170.598 318.972 171.103 318.466 171.86 318.466H202.652C203.409 318.466 203.914 318.972 203.914 319.732C203.661 320.491 203.157 320.998 202.652 320.998Z" fill="url(#paint1_linear_812_101763)"/>
<path d="M200.88 313.655C201.637 314.161 202.394 315.174 202.394 316.187V318.719H172.107V316.187C172.107 315.174 172.612 314.161 173.369 313.655L177.407 310.869V299.982H196.589V311.123L200.88 313.655Z" fill="url(#paint2_linear_812_101763)"/>
<path d="M189.273 55.6413C188.011 54.6285 186.244 54.6285 185.235 55.6413C179.682 60.4522 170.848 77.4167 170.848 95.3941V307.325C170.848 309.35 172.363 310.869 174.382 310.869H187.254H200.126C202.145 310.869 203.659 309.35 203.659 307.325V95.6473C203.659 77.4167 194.825 60.7054 189.273 55.6413Z" fill="url(#paint3_linear_812_101763)"/>
<path d="M247.321 0.94951C244.545 -0.316503 240.507 -0.316503 237.731 0.94951C224.606 7.53278 203.657 38.6767 203.657 63.2373C203.657 91.0896 203.657 297.956 203.657 297.956H242.526H281.395C281.395 297.956 281.395 91.0896 281.395 63.2373C281.142 38.6767 260.446 7.78598 247.321 0.94951Z" fill="url(#paint4_linear_812_101763)"/>
<path d="M220.826 91.3429H281.401" stroke="#989FB0" stroke-width="2" stroke-miterlimit="10" stroke-linejoin="round"/>
<path d="M203.657 91.3429H210.977" stroke="#989FB0" stroke-width="2" stroke-miterlimit="10" stroke-linejoin="round"/>
<path d="M188.013 98.4327H203.662" stroke="#989FB0" stroke-width="2" stroke-miterlimit="10" stroke-linejoin="round"/>
<path d="M170.598 98.4327H177.413" stroke="#989FB0" stroke-width="2" stroke-miterlimit="10" stroke-linejoin="round"/>
<path d="M183.217 142.237H203.661" stroke="#989FB0" stroke-width="2" stroke-miterlimit="10" stroke-linejoin="round"/>
<path d="M313.202 320.998H282.41C281.653 320.998 281.148 320.491 281.148 319.732C281.148 318.972 281.653 318.466 282.41 318.466H313.202C313.96 318.466 314.464 318.972 314.464 319.732C314.212 320.491 313.707 320.998 313.202 320.998Z" fill="url(#paint5_linear_812_101763)"/>
<path d="M311.688 313.655C312.445 314.161 313.202 315.174 313.202 316.187V318.719H282.915V316.187C282.915 315.174 283.42 314.161 284.177 313.655L288.216 310.869V299.982H307.397V311.123L311.688 313.655Z" fill="url(#paint6_linear_812_101763)"/>
<path d="M299.819 55.6413C298.557 54.6285 296.791 54.6285 295.781 55.6413C290.228 60.4522 281.395 77.4167 281.395 95.3941V307.325C281.395 309.35 282.909 310.869 284.928 310.869H297.8H310.672C312.691 310.869 314.206 309.35 314.206 307.325V95.6473C314.206 77.4167 305.372 60.7054 299.819 55.6413Z" fill="url(#paint7_linear_812_101763)"/>
<path d="M294.521 98.4327H314.461" stroke="#989FB0" stroke-width="2" stroke-miterlimit="10" stroke-linejoin="round"/>
<path d="M296.042 142.237H314.215" stroke="#989FB0" stroke-width="2" stroke-miterlimit="10" stroke-linejoin="round"/>
<path d="M281.148 142.237H288.215" stroke="#989FB0" stroke-width="2" stroke-miterlimit="10" stroke-linejoin="round"/>
<g filter="url(#filter0_d_812_101763)">
<path d="M220.067 126.791L221.582 120.714L225.62 119.702L232.434 118.182L233.192 117.929L233.696 126.791L243.54 272.383L222.339 301.754L214.01 300.235L155.454 290.107C151.921 289.601 149.145 286.309 149.145 282.764V255.165C149.145 251.873 150.407 248.582 152.678 246.303L192.052 206.297C198.361 199.714 203.157 191.611 205.428 183.002L213.757 151.099L220.067 126.791Z" fill="url(#paint8_linear_812_101763)"/>
</g>
<g filter="url(#filter1_d_812_101763)">
<path d="M338.694 255.165V282.764C338.694 286.309 336.17 289.601 332.384 290.107L288.468 297.703L265.5 301.754L244.047 272.383L254.647 117.929L255.404 118.182L262.219 119.702L266.257 120.714L280.896 176.166L282.663 183.002C284.934 191.864 289.478 199.967 296.04 206.297L335.413 246.303C337.432 248.582 338.694 251.873 338.694 255.165Z" fill="url(#paint9_linear_812_101763)"/>
</g>
<g filter="url(#filter2_d_812_101763)">
<path d="M266.257 112.612V298.209H220.826V112.612C220.826 104.509 222.593 96.66 225.874 89.3171C226.631 88.0511 227.136 86.5319 227.893 85.2659L237.484 69.3141C240.261 64.7565 246.571 64.7565 249.347 69.3141L258.938 85.2659C259.695 86.5319 260.452 88.0511 260.957 89.3171C264.49 96.66 266.257 104.762 266.257 112.612Z" fill="url(#paint10_linear_812_101763)"/>
</g>
<path d="M261.204 89.3171C259.69 86.7851 256.914 85.2659 253.633 85.2659H233.441C230.412 85.2659 227.636 86.7851 225.869 89.3171C226.626 88.0511 227.131 86.5319 227.888 85.2659L237.479 69.3141C240.256 64.7565 246.566 64.7565 249.342 69.3141L258.933 85.2659C259.69 86.5319 260.7 88.0511 261.204 89.3171Z" fill="#C2C8D6"/>
<path d="M255.147 110.84C255.147 111.599 254.137 112.106 253.633 111.346C252.371 109.827 250.604 109.067 248.332 109.067H238.489C236.47 109.067 234.703 109.827 233.441 111.346C233.441 111.346 233.441 111.346 233.189 111.599C232.684 112.359 231.674 111.852 231.674 111.093C231.674 110.333 231.674 109.574 231.674 108.561C231.674 104.763 234.703 101.978 238.489 101.978H248.332C248.585 101.978 248.837 101.978 249.089 101.978C250.099 101.978 250.856 102.484 251.866 102.737C253.885 104.003 255.147 106.029 255.147 108.561C255.147 109.32 255.147 110.08 255.147 110.84Z" fill="#C2C8D6"/>
<path d="M231.673 258.71H226.12C219.305 258.71 214.005 264.28 214.005 270.864V301.754H244.04V270.864C243.787 264.28 238.235 258.71 231.673 258.71Z" fill="url(#paint11_linear_812_101763)"/>
<path d="M261.456 258.71H255.904C249.089 258.71 243.789 264.28 243.789 270.864V301.754H273.823V270.864C273.571 264.28 268.018 258.71 261.456 258.71Z" fill="url(#paint12_linear_812_101763)"/>
<path d="M259.436 301.754H227.887L221.325 306.059C220.063 307.072 219.306 308.338 219.306 310.11V314.415H269.027V310.363C269.027 308.591 268.27 307.072 266.756 306.312L259.436 301.754Z" fill="url(#paint13_linear_812_101763)"/>
<path d="M271.055 316.44C271.055 317.453 270.298 318.466 269.036 318.466H218.557C217.548 318.466 216.538 317.706 216.538 316.44C216.538 315.427 217.295 314.414 218.557 314.414H269.036C270.045 314.414 271.055 315.427 271.055 316.44Z" fill="url(#paint14_linear_812_101763)"/>
<rect x="243.714" y="236.597" width="6.32766" height="66.2471" rx="2" fill="#C2C8D6"/>
<defs>
<filter id="filter0_d_812_101763" x="127.145" y="106.929" width="138.395" height="227.825" filterUnits="userSpaceOnUse" color-interpolation-filters="sRGB">
<feFlood flood-opacity="0" result="BackgroundImageFix"/>
<feColorMatrix in="SourceAlpha" type="matrix" values="0 0 0 0 0 0 0 0 0 0 0 0 0 0 0 0 0 0 127 0" result="hardAlpha"/>
<feOffset dy="11"/>
<feGaussianBlur stdDeviation="11"/>
<feColorMatrix type="matrix" values="0 0 0 0 0.397708 0 0 0 0 0.47749 0 0 0 0 0.575 0 0 0 0.27 0"/>
<feBlend mode="normal" in2="BackgroundImageFix" result="effect1_dropShadow_812_101763"/>
<feBlend mode="normal" in="SourceGraphic" in2="effect1_dropShadow_812_101763" result="shape"/>
</filter>
<filter id="filter1_d_812_101763" x="222.047" y="106.929" width="138.647" height="227.825" filterUnits="userSpaceOnUse" color-interpolation-filters="sRGB">
<feFlood flood-opacity="0" result="BackgroundImageFix"/>
<feColorMatrix in="SourceAlpha" type="matrix" values="0 0 0 0 0 0 0 0 0 0 0 0 0 0 0 0 0 0 127 0" result="hardAlpha"/>
<feOffset dy="11"/>
<feGaussianBlur stdDeviation="11"/>
<feColorMatrix type="matrix" values="0 0 0 0 0.397708 0 0 0 0 0.47749 0 0 0 0 0.575 0 0 0 0.27 0"/>
<feBlend mode="normal" in2="BackgroundImageFix" result="effect1_dropShadow_812_101763"/>
<feBlend mode="normal" in="SourceGraphic" in2="effect1_dropShadow_812_101763" result="shape"/>
</filter>
<filter id="filter2_d_812_101763" x="198.826" y="54.8959" width="89.4308" height="276.313" filterUnits="userSpaceOnUse" color-interpolation-filters="sRGB">
<feFlood flood-opacity="0" result="BackgroundImageFix"/>
<feColorMatrix in="SourceAlpha" type="matrix" values="0 0 0 0 0 0 0 0 0 0 0 0 0 0 0 0 0 0 127 0" result="hardAlpha"/>
<feOffset dy="11"/>
<feGaussianBlur stdDeviation="11"/>
<feColorMatrix type="matrix" values="0 0 0 0 0.397708 0 0 0 0 0.47749 0 0 0 0 0.575 0 0 0 0.27 0"/>
<feBlend mode="normal" in2="BackgroundImageFix" result="effect1_dropShadow_812_101763"/>
<feBlend mode="normal" in="SourceGraphic" in2="effect1_dropShadow_812_101763" result="shape"/>
</filter>
<linearGradient id="paint0_linear_812_101763" x1="267.055" y1="301.754" x2="220.83" y2="302.386" gradientUnits="userSpaceOnUse">
<stop stop-color="#B0BACC"/>
<stop offset="1" stop-color="#969EAE"/>
</linearGradient>
<linearGradient id="paint1_linear_812_101763" x1="202.592" y1="318.466" x2="171.678" y2="319.882" gradientUnits="userSpaceOnUse">
<stop stop-color="#B0BACC"/>
<stop offset="1" stop-color="#969EAE"/>
</linearGradient>
<linearGradient id="paint2_linear_812_101763" x1="201.193" y1="299.982" x2="173.031" y2="300.14" gradientUnits="userSpaceOnUse">
<stop stop-color="#B0BACC"/>
<stop offset="1" stop-color="#969EAE"/>
</linearGradient>
<linearGradient id="paint3_linear_812_101763" x1="202.358" y1="54.8822" x2="171.848" y2="54.8959" gradientUnits="userSpaceOnUse">
<stop stop-color="#B0BACC"/>
<stop offset="1" stop-color="#969EAE"/>
</linearGradient>
<linearGradient id="paint4_linear_812_101763" x1="278.311" y1="0.00062374" x2="206.027" y2="0.0662837" gradientUnits="userSpaceOnUse">
<stop stop-color="#B0BACC"/>
<stop offset="1" stop-color="#969EAE"/>
</linearGradient>
<linearGradient id="paint5_linear_812_101763" x1="313.143" y1="318.466" x2="282.229" y2="319.882" gradientUnits="userSpaceOnUse">
<stop stop-color="#B0BACC"/>
<stop offset="1" stop-color="#969EAE"/>
</linearGradient>
<linearGradient id="paint6_linear_812_101763" x1="312.001" y1="299.982" x2="283.839" y2="300.14" gradientUnits="userSpaceOnUse">
<stop stop-color="#B0BACC"/>
<stop offset="1" stop-color="#969EAE"/>
</linearGradient>
<linearGradient id="paint7_linear_812_101763" x1="312.904" y1="54.8822" x2="282.395" y2="54.8959" gradientUnits="userSpaceOnUse">
<stop stop-color="#B0BACC"/>
<stop offset="1" stop-color="#969EAE"/>
</linearGradient>
<linearGradient id="paint8_linear_812_101763" x1="196.311" y1="113.677" x2="196.311" y2="303.736" gradientUnits="userSpaceOnUse">
<stop stop-color="#FDFEFF"/>
<stop offset="0.9964" stop-color="#ECF0F5"/>
</linearGradient>
<linearGradient id="paint9_linear_812_101763" x1="291.34" y1="113.677" x2="291.34" y2="303.736" gradientUnits="userSpaceOnUse">
<stop stop-color="#FDFEFF"/>
<stop offset="0.9964" stop-color="#ECF0F5"/>
</linearGradient>
<linearGradient id="paint10_linear_812_101763" x1="243.527" y1="60.5222" x2="243.527" y2="300.714" gradientUnits="userSpaceOnUse">
<stop stop-color="#FDFEFF"/>
<stop offset="0.9964" stop-color="#ECF0F5"/>
</linearGradient>
<linearGradient id="paint11_linear_812_101763" x1="229.013" y1="257.714" x2="229.013" y2="302.218" gradientUnits="userSpaceOnUse">
<stop stop-color="#FDFEFF"/>
<stop offset="0.9964" stop-color="#ECF0F5"/>
</linearGradient>
<linearGradient id="paint12_linear_812_101763" x1="258.796" y1="257.714" x2="258.796" y2="302.218" gradientUnits="userSpaceOnUse">
<stop stop-color="#FDFEFF"/>
<stop offset="0.9964" stop-color="#ECF0F5"/>
</linearGradient>
<linearGradient id="paint13_linear_812_101763" x1="267.055" y1="301.754" x2="220.83" y2="302.386" gradientUnits="userSpaceOnUse">
<stop stop-color="#B0BACC"/>
<stop offset="1" stop-color="#969EAE"/>
</linearGradient>
<linearGradient id="paint14_linear_812_101763" x1="268.892" y1="314.414" x2="218.311" y2="316.784" gradientUnits="userSpaceOnUse">
<stop stop-color="#B0BACC"/>
<stop offset="1" stop-color="#969EAE"/>
</linearGradient>
</defs>
</svg>
